<svg viewBox="0 0 200 60" id="visa" xmlns="http://www.w3.org/2000/svg"><path d="M80.2 59H65.1l9.4-58h15.1l-9.4 58zM52.4 1L38 40.9l-1.7-8.6-5.1-26s-.6-5.2-7.2-5.2H.3L0 2s7.3 1.5 15.8 6.6L28.9 59h15.7l24-58H52.4zm118.7 58H185L172.9 1h-12.1c-5.6 0-7 4.3-7 4.3L131.3 59H147l3.1-8.6h19.2l1.8 8.6zm-16.6-20.5l7.9-21.7 4.5 21.7h-12.4zM132.4 15l2.2-12.4S128 .1 121 .1c-7.5 0-25.3 3.3-25.3 19.2 0 15 20.9 15.2 20.9 23s-18.7 6.5-24.9 1.5l-2.2 13s6.7 3.3 17 3.3 25.8-5.3 25.8-19.8c0-15.1-21.1-16.5-21.1-23 .1-6.7 14.8-5.9 21.2-2.3z" fill="#1434CB"/><path d="M36.3 32.3l-5.1-26s-.6-5.2-7.2-5.2H.3L0 2s11.4 2.4 22.4 11.2c10.5 8.5 13.9 19.1 13.9 19.1z" fill="#1434CB"/></svg>